<svg width="105" height="32" viewBox="0 0 105 32" fill="none" xmlns="http://www.w3.org/2000/svg">
<rect x="8" width="97" height="32" rx="16" fill="#FCFCFC" fill-opacity="0.3"/>
<path fill-rule="evenodd" clip-rule="evenodd" d="M25.3125 8.48959C24.9444 8.48959 24.6459 8.78806 24.6459 9.15625C24.6459 9.52444 24.9444 9.82292 25.3125 9.82292H27.3735L27.9132 12.5192C27.9161 12.538 27.9198 12.5565 27.9243 12.5748L29.0131 18.0146L29.0132 18.0151C29.1034 18.4685 29.3501 18.8757 29.7102 19.1656C30.0685 19.4541 30.5165 19.608 30.9764 19.6009H37.3011C37.761 19.608 38.209 19.4541 38.5673 19.1656C38.9276 18.8756 39.1743 18.4681 39.2644 18.0146L39.2644 18.0146L39.2654 18.0096L40.3084 12.5404C40.3456 12.3453 40.2938 12.1437 40.1672 11.9906C40.0405 11.8375 39.8522 11.7489 39.6535 11.7489H29.1188L28.5737 9.02541C28.5113 8.71384 28.2377 8.48959 27.92 8.48959H25.3125ZM30.3207 17.7538L29.3857 13.0822H38.8477L37.9562 17.7569C37.9268 17.9027 37.8472 18.0336 37.7313 18.1269C37.6148 18.2207 37.4691 18.2705 37.3196 18.2676L37.3196 18.2675H37.3068H30.9707V18.2674L30.9579 18.2676C30.8084 18.2705 30.6627 18.2207 30.5462 18.1269C30.4298 18.0332 30.35 17.9015 30.3209 17.7548L30.3207 17.7538ZM29.2104 22.1936C29.2104 21.4657 29.8005 20.8755 30.5285 20.8755C31.2564 20.8755 31.8466 21.4657 31.8466 22.1936C31.8466 22.9216 31.2564 23.5117 30.5285 23.5117C29.8005 23.5117 29.2104 22.9216 29.2104 22.1936ZM36.3804 22.1936C36.3804 21.4657 36.9705 20.8755 37.6985 20.8755C38.4264 20.8755 39.0166 21.4657 39.0166 22.1936C39.0166 22.9216 38.4264 23.5117 37.6985 23.5117C36.9705 23.5117 36.3804 22.9216 36.3804 22.1936Z" fill="#2D3440"/>
<path d="M56.8494 10.8182H49.2528V21H50.4858V11.9119H55.6165V21H56.8494V10.8182ZM59.9331 23.8636C60.992 23.8636 61.7377 23.3018 62.1802 22.1136L65.4316 13.3835L64.149 13.3636L62.041 19.4489H61.9615L59.8535 13.3636H58.5808L61.4047 21.0398L61.1859 21.6364C60.7583 22.7997 60.2314 22.9091 59.3762 22.6903L59.0779 23.7244C59.1973 23.7841 59.5353 23.8636 59.9331 23.8636ZM69.8129 21.1591C71.5032 21.1591 72.6168 20.125 72.8157 18.7727H71.6424C71.4237 19.608 70.7276 20.1051 69.8129 20.1051C68.4208 20.1051 67.5259 18.9517 67.5259 17.1818C67.5259 15.4517 68.4407 14.3182 69.8129 14.3182C70.8469 14.3182 71.4634 14.9545 71.6424 15.6506H72.8157C72.6168 14.2188 71.4038 13.2642 69.793 13.2642C67.7248 13.2642 66.3526 14.8949 66.3526 17.2216C66.3526 19.5085 67.6651 21.1591 69.8129 21.1591ZM73.9293 14.4574H76.4549V21H77.6282V14.4574H80.1339V13.3636H73.9293V14.4574ZM84.5511 21.1591C86.6193 21.1591 88.0114 19.5881 88.0114 17.2216C88.0114 14.8352 86.6193 13.2642 84.5511 13.2642C82.483 13.2642 81.0909 14.8352 81.0909 17.2216C81.0909 19.5881 82.483 21.1591 84.5511 21.1591ZM84.5511 20.1051C82.9801 20.1051 82.2642 18.7528 82.2642 17.2216C82.2642 15.6903 82.9801 14.3182 84.5511 14.3182C86.1222 14.3182 86.8381 15.6903 86.8381 17.2216C86.8381 18.7528 86.1222 20.1051 84.5511 20.1051Z" fill="#2D3440"/>
</svg>
