<svg width="108" height="32" viewBox="0 0 108 32" fill="none" xmlns="http://www.w3.org/2000/svg">
<rect opacity="0.3" x="8" width="92" height="32" rx="16" fill="#FCFCFC"/>
<path fill-rule="evenodd" clip-rule="evenodd" d="M34.2084 8.875C34.2084 8.50681 34.5069 8.20833 34.875 8.20833H37.875C38.4497 8.20833 39.0008 8.43661 39.4071 8.84293C39.8134 9.24926 40.0417 9.80036 40.0417 10.375V20.875C40.0417 21.4496 39.8134 22.0007 39.4071 22.4071C39.0008 22.8134 38.4497 23.0417 37.875 23.0417H34.875C34.5069 23.0417 34.2084 22.7432 34.2084 22.375C34.2084 22.0068 34.5069 21.7083 34.875 21.7083H37.875C38.0961 21.7083 38.308 21.6205 38.4643 21.4643C38.6206 21.308 38.7084 21.096 38.7084 20.875V10.375C38.7084 10.154 38.6206 9.94202 38.4643 9.78574C38.308 9.62946 38.0961 9.54167 37.875 9.54167H34.875C34.5069 9.54167 34.2084 9.24319 34.2084 8.875ZM30.6536 11.4036C30.9139 11.1432 31.3361 11.1432 31.5964 11.4036L35.3418 15.149C35.4652 15.27 35.5417 15.4386 35.5417 15.625C35.5417 15.8114 35.4652 15.98 35.3418 16.101L31.5964 19.8464C31.3361 20.1068 30.9139 20.1068 30.6536 19.8464C30.3932 19.5861 30.3932 19.1639 30.6536 18.9036L33.2655 16.2917H25.875C25.5069 16.2917 25.2084 15.9932 25.2084 15.625C25.2084 15.2568 25.5069 14.9583 25.875 14.9583H33.2655L30.6536 12.3464C30.3932 12.0861 30.3932 11.6639 30.6536 11.4036Z" fill="#2D3440"/>
<path d="M49.233 21H52.9119C55.3182 21 56.3125 19.8267 56.3125 18.2955C56.3125 16.6847 55.1989 15.8097 54.2642 15.75V15.6506C55.1392 15.4119 55.9148 14.8352 55.9148 13.5227C55.9148 12.0312 54.9205 10.8182 52.7926 10.8182H49.233V21ZM50.4659 19.9062V16.3665H52.9716C54.304 16.3665 55.1392 17.2614 55.1392 18.2955C55.1392 19.1903 54.5227 19.9062 52.9119 19.9062H50.4659ZM50.4659 15.2926V11.9119H52.7926C54.1449 11.9119 54.7415 12.6278 54.7415 13.5227C54.7415 14.5966 53.8665 15.2926 52.7528 15.2926H50.4659ZM59.0543 13.3636H57.7021L60.1282 17.1818L57.7021 21H59.0543L60.8839 18.0369L62.7134 21H64.0657L61.5998 17.1818L64.0657 13.3636H62.7134L60.8839 16.4858L59.0543 13.3636ZM68.5277 21.1591C70.5959 21.1591 71.9879 19.5881 71.9879 17.2216C71.9879 14.8352 70.5959 13.2642 68.5277 13.2642C66.4595 13.2642 65.0675 14.8352 65.0675 17.2216C65.0675 19.5881 66.4595 21.1591 68.5277 21.1591ZM68.5277 20.1051C66.9567 20.1051 66.2408 18.7528 66.2408 17.2216C66.2408 15.6903 66.9567 14.3182 68.5277 14.3182C70.0987 14.3182 70.8146 15.6903 70.8146 17.2216C70.8146 18.7528 70.0987 20.1051 68.5277 20.1051ZM72.9636 23.1875H74.1369V21H79.7846V23.1875H80.9579V19.9062H79.7846V13.3636H74.9324L74.6738 16.3864C74.4899 18.5241 74.2164 19.2599 73.6 19.9062H72.9636V23.1875ZM74.9324 19.9062C75.4693 19.2003 75.6632 17.9822 75.8272 16.3864L76.0261 14.4574H78.6113V19.9062H74.9324Z" fill="#2D3440"/>
</svg>
